<mxfile host="app.diagrams.net" agent="Mozilla/5.0 (Windows NT 10.0; Win64; x64) AppleWebKit/537.36 (KHTML, like Gecko) Chrome/135.0.0.0 Safari/537.36" version="26.2.12" pages="2">
  <diagram name="페이지-1" id="LEVhIc2kPxX2ePoIyiT4">
    <mxGraphModel dx="2307" dy="1179" grid="1" gridSize="10" guides="1" tooltips="1" connect="1" arrows="1" fold="1" page="1" pageScale="1" pageWidth="1100" pageHeight="850" math="0" shadow="0">
      <root>
        <mxCell id="0" />
        <mxCell id="1" parent="0" />
        <mxCell id="08hoRIvfVfpRwxzlddGf-9" value="" style="shape=image;verticalLabelPosition=bottom;labelBackgroundColor=default;verticalAlign=top;aspect=fixed;imageAspect=0;image=data:image/png,iVBORw0KGgoAAAANSUhEUgAAAXQAAAGmCAYAAABslX93AAAAAXNSR0IArs4c6QAAAARnQU1BAACxjwv8YQUAAAAJcEhZcwAADsMAAA7DAcdvqGQAADD+SURBVHhe7d0J/FdT/sfxkxJRSNGijRKlhRFZkrIk+5KlEGUdmVHxt6TE0EIYDdlFCcXYylAUSkppQmVLCSX9SlkqopS/95nzG8XkV/2+59x7z/f1fDx+j773lqXv997399yzfE6JFStW/GwAAJm3mfsVAJBxBDoARIJAB4BIEOgAEAkCHQAiQaADQCQIdACIBIEOAJEg0AEgEgQ6AESCQAeASBDoABAJAh0AIkGgA0AkCHQAiASBDgCRINABIBIEOgBEgkAHgEgQ6AAQCQIdACJBoANAJAh0AIgEgQ4AkSDQASASBDoARIJAB4BIEOgAEAkCHQAiQaADQCQIdACIBIEOAJEosWLFip/dayBvrV692nz//ffml/vB/rps2TIzf/58M3v2bPPpp5+aBQsWmMWLF9ufpUuX2p81a9bYPytbbbWV2Wyzzcw222xjfypWrGh/qlSpYmrVqmXq1KljdtppJ1OuXDn7Z8uUKWN/LVmypP3ngVwg0JG3vv32WxvYM2fOtD+fffaZmTt3rpk3b55ZuHChWbVqlfuTuVG6dGmz4447murVq5saNWrYH4V93bp1ze67726/AIDiINCRVxTiL7/8shk5cqSZNGmSWb58uf357rvvzM8/h70VSpQoYbbccktTtmxZ26rfY489zDHHHGOOO+44s+2227o/BWw4Ah3RUkArrNVNMmXKFDN06FDz6quvmh9//NH9iXTaYostzCGHHGLatWtnmjRpYlvuCn19AQB/hEBHlD7//HMb3mqNT5482XalqM87S9Qnr26Zpk2bmubNm5uWLVuanXfe2f0u8HsEOqKhFvm7775r7rrrLjN27FjbMlcLPQYaQN1hhx1sy71Tp062e4YWO36LQEemKcQ140SDm/fff7958sknbX94zDRD5sgjjzSXXHKJHUxV/zvhDiHQkVm/XLtmzJgxtm989OjR0bTGN5T61Q8//HBz0kkn2YDfeuut3e8gXxHoyBz1hY8bN8707t3bvPfee3bmSugZKmmiGTENGzY03bt3t33t6ntHfiLQkRkrV660g5133nmneeihh2wLHb/S7JgzzzzTXHbZZXYRk+a9I78Q6MiERYsWmUGDBtkg18pNrJ9mwpx99tmmY8eOdiET8geBjtR74403zKWXXmo+/PBD88MPP7iz+CNqre+2226mV69etp8d+YFAR2p9+eWX5p577jH9+/f/b80UbBxNd+zSpYu58MILaa3nAQIdqaNBT7XKb7nlFrswKNc1VfJNqVKl7KIkBfvBBx9MQbCIEehIFQ18Dhw40Nx666222iFyR5Ufr7zySnPOOeeYzTff3J1FTAh0pMZXX31lBgwYYMNcwY7cU5B37tzZdO3a1Wy//fbuLGJBoCNxmkM+Y8YMc/3115vnn3/enYVPRx99tJ23vueee7LKNCIEOhKnMD/vvPNsHZasFdDKKi0+Uj2Y++67z4Y64kCgIzE//fSTmTBhgl0Mo0JaCE+leR955BFzwAEH0K8eAdYIIxGaufL000/bATrCPDl677UISUXNmE2UfQQ6EjFixAi7RP2LL75wZ5AUbbd3xRVX2M8E2UaXC4JSK1DBoWXptAjTRV0uKq2gLfDofskmWugIRgH+zDPP2ClzhHn66DPR4iN1hWl8A9lDCx3BqOStWuYLFixwZ5BGlStXNoMHD7aleJEtBDq8K9waTnOfVZ8l7VR2tly5cnYDCdUa165AKnS1yy67mOrVq9ut4CpUqGALYBVuKqFdkrT59JIlS2xlSJX5nTNnji0oNnPmTFuzfdmyZXYTjiwsmtLf8YUXXmCru4wh0OHd9OnTzQUXXGCmTZvmzqSPiljVr1/fzsmuV6+eqVu3rqlTp46tK17c/mR1ZaiMgbbJ++ijj8z7779v3wttzvHL/ef+VPo0btzYzlNv1KiRO4O0I9DhlZbzq9KfWntpWzSklmetWrXMqaeeak488URTqVIls91225ktt9zS/Qk/FOJqsRcUFNgxhSeeeMJ89tlnqdt1SYuP9FSlipeUCcgGAh3eqGXap08fc+ONN7ozyVNIlS9f3m7Zdv7555vWrVvb1nmSVBpYVSW1ybVa7pobnqYvv8svv9z06NGDHZAygECHF6tXr7YBddVVV9m+5TTQTj5qcWpD5QMPPND2gaeJvgCnTJlihg8fbqd2pmVnJnU53XzzzfYLkP1K041Ahxdjx4415557bioWDqkFrj58zbCpWbNm6oL8t/QFqC4YlRF+4IEHUrG5R9WqVe0WgAcddJA7gzQi0JFzmsmifvORI0e6M8nQTJW9997bbsOmX7NIA8pXX321mTx5sp0hkyQ92WiQVPVfkE48PyHnNIg2ZswYd5QMzcxQN4FqlGQ1zEV/j2HDhpl+/frZfv8k6TO999573RHSiBY6ckpdLW3atEmsm0Dbq7Vr18707NnTdhPEst2axiQ0K0bb8qkbJqmVnOq+Uh9/s2bN3BmkCYGOnNGCmmOPPdZ2EyRBW6ypyJQqOMY6I0OLkh588EHbYk9qxa3m6ivU2XQ6fehyQU4oaFTYSQtnQtN8ctXzVv+uZmLEPL1OfzcN8GrAdL/99ktkFadWv6o0APV40ocWOnLik08+sVMC9WtICrRWrVqZv//973Zpfj7Re6054lq0FXpRkhZkabvAfHvP044WOopNi2AUqKHDXP3jhx56qN1YOh+DRfPqb7/9dvuFFnqsQHPk77jjDtu3j/Qg0FFsr732mt3GLCQtz1dfubp5qlWr5s7mHw38apC0Q4cO3ksW/Jbe+/Hjx7sjpAGBjmLRbBbN8/7hhx/cGf/UGj3jjDPM9ddfz5zoX+g96N27t2nfvn3QlroWQOm/m/T8ePyKQMcmU7/tqFGjbGncUNRnrm6W6667zhbSwn+ozK/eE3W/hBwonTFjhhk9enTqCovlKwIdm2zp0qV24Y5+DUFBdcQRR5g777yTlvn/oIqIGk/QexQq1AuvAVWPRPIIdGyyWbNm2dWDoVpn+++/vx18zec+86KoT12Lj5o2berO+KXPXi30jz/+2J1Bkgh0bBLdyGoNaheeELRoSJUbNbMDf6x27dp2gZV2HQpB18Bdd92Vunr3+YhAxyZRv7lKvIZQqlQpG1DqO8eGOeyww0znzp2Dlbt99tln7Q5MSBaBjk2iFtmKQNunaUqeSt9Si3vDqYb5xRdfbE4//XR3xi/NdlJRNgZHk8Udgo2mBUSvvvqqO/JL1QavvPLK1NcwTyPNS7/22mvtRs8haNcl1XFHcgh0bBS1wBTmIXbvVz3ziy66yPafY9PovTvvvPOCbLOna0LXBq305BDo2ChaRKLVgSHK4zZp0sSW4o2lBG4S9N6pnLB28PdN14Suje+++86dQWgEOjaKNjCeNGmSO/JHLUqtQlQrHcWjRUfarLtMmTLujD+6NnSNIBkEOjaKNjGeN2+eO/JHZXBVdxu5oVK7qn3jm/rQp06d6o4QGoGOjaLt0HxX2NNcc81qCbmEPR9o027f4xGai65rBMkg0LHBtLzb9+wWTU085phj7O78yC29p6pZ7/uLUquHQy04w7oIdGwwFeJShT2fVI/kqKOOCl4KNh9oXOL444835cuXd2f8UOVNlQNAeAQ6Nthzzz3nfUpagwYNbH8v/DjooINMw4YN3ZE/oVYRY10EOjbI119/7X3zZ3UFaDCU1rk/WqClvnTf3S4aGP3mm2/cEUIh0LFBtPmz735R7VPZunVrdwRf1I9eo0YNd+SHrhVV40RYBDo2yMyZM70H+mmnnRZkRWO+03t8yimnuCM/tABNjQCERaCjSJqmOHv2bK+rQxUyJ5xwgjuCbyeddJLXhUa6VhTolNQNi0BHkXRzzp071+uAaP369U2lSpXcEXzTfHS9577oWtE1E6JEBH5FoKNIKpPre3WoVoWyR2g4KgegSpY+6ZoJVWIZ/0Ggo0hqZfkM9NKlS5t69eoxuyUgdbeorK7ee1/UQqdQV1gEOoqkwdBFixa5o9xTAa66deu6I4Si99xn8TNdMxocRTgEOor0+eefm5UrV7qj3CtbtqypU6eOO0Ioes99BrpWFc+fP98dIQQCHUXSju4+B0TVn7vTTju5I4Si93ybbbZxR37MmTPHvUIIBDqK5HtbMfWfaw9MhKX+c99dXQR6WAQ6irRgwQL3yo/ddtvNvUJovgO9oKDAvUIIBDqK5Hv/UNU/RzJq167tta4LuxeFRaCjSL5vyurVq7tXCM33ex9iM3H8ikBHkVRp0acddtjBvUJovt9739cO1kWgo0jasMCnihUrulcIzfd7z0rRsAh0FMnnHHRhhWhyfBboEt/XDtZFoKNIvred06YLSIbvL1PfT3dYF4GOIvne5b9kyZLuFULz/d77vnawLgIdACJBoANAJAh0AIgEgQ4AkSDQASASBDoARIJAB4BIEOgAEAkCHQAiQaADQCQIdACIBIEOAJEg0AEgEgQ6AESCQAeASBDoABAJAh0AIkGgA0AkCHQAiASBDgCRINABIBIEOgBEgkAHgEgQ6AAQCQIdACJBoANAJAh0AIgEgQ4AkSDQASASBDoARIJAB4BIEOgAEAkCHQAiQaADQCQIdACIBIEOAJEg0AEgEgQ6AESCQAeASBDoABAJAh0AIkGgA0AkCHQAiASBDgCRINABIBIEOgBEgkAHgEgQ6AAQCQIdACJBoANAJAh0AIgEgQ4AkSDQASASBDoARIJAB4BIEOgAEAkCHQAiQaADQCQIdACIBIEOAJEg0AEgEgQ6AESCQAeASBDoABAJAh0AIkGgA0AkCHQAiASBDgCRINABIBIEOgBEgkAHgEiUWLFixc/uNQL7/vvvzbx588zYsWPN6NGjzYwZM0xBQYH9vcqVK5uGDRuaVq1amRYtWpjq1aubMmXK2N8LbauttjI//+zvMvnlGnSvkIRYP9+s3F+5RKAnYM2aNWby5MlmyJAh5sUXXzQLFixY7w1VokQJU6VKFdO6dWvTvn17s++++5rNNgv7YEWgxy22zzdr91cuEeiBrVq1ygwaNMj069fPzJ8/f4NvJF14akVcc801pl27dqZkyZLud/wj0OMW0+db3PurZ8+epm3btkHvr1wi0APSxTZw4EDTvXt3+zi4KcqWLWv69OljzjnnnGAXHYEet1g+38L76+qrr97k/6bur759+5qOHTtmMtQZFA1Ej4GDBw8uVpjL8uXL7QX72GOP2X8ngF/vr+KEuej+6tatmxk6dGgm7y8CPRD16d18883FCvNCuuh69+5tpk6d6s4A+U33l7pZcvE0oPurV69e5q233nJnsoNAD0AhrgEajbjniv5djz/+uPnxxx/dGSA/Fd5fn3/+uTtTfLq/hg0blrn7i0APQBfHSy+9lNN+Sj0ODh8+3MydO9edAfIT99evCPQANA9WU6dyTaP4+ncD+Yz761cEegBa1OBjgEUtErVMgHw2ZswY7i+HQA9g+vTp7lXuafUbkM+4v35FoAewaNEi9yr3Fi5c6F4B+Yn761cEegBa8ODLDz/8YFavXu2O/PC9wML3/z/WL4Zrx+dMlJUrV7pX2UCgB7D55pu7V374nlq1xRZbuFd+MPUyOWoQ+LTlllu6V374/v8vXbq0e5UNBHoAvi8K360I3///LP1PTi4Wuv0R39eO78aA78ZYrhHoAfh+7PR9UftuZS1ZssS9Qmi+33vfJWkJ9HUR6AH4bqX4fuwsX768e+WHz0Et/DHf7/3222/vXvlBl8u6CPQAfF8U3377rXvlxw477OBe+ZHLJdvYOLksR/G/VKxY0b3yY+nSpe6VH7TQ8TvbbLONe+XH4sWL3Ss/fN+Uc+bMca8Qmt57n6VzfTcGfD9hbLfddu5VNhDoAfh+7Pzyyy/dKz+0o4tPM2fOdK8Qmu/3vlKlSu6VH74bM77v3Vwj0APIeqDXrFnTvfLjgw8+yNx83xjoPZ81a5Y78mOXXXZxr/zQte/zCcP3+FGuEegBVKhQwb3yw3eg165d227R5Yv6Qb/44gt3hFA0duF7/MV3oPvucvF97+YagR6A7xa67xKf1apV8zqwu2zZMjN79mx3hFD0nmszB1+0IG2nnXZyR374HlCnywW/43tgyPegYrly5cyOO+7ojnJPofLRRx+5I4Si91xfpr6o/1zXjk++r33fEwJyjUAPoEaNGl67LL7++muv07e0ibB2RPdFfbnvv/++9znF+JVW5+o99zl2oWtG144v6i7y3WXke/wo1wj0AHRh+wx0rZbzOdqv1X76UvJp2rRp5ptvvnFH8E3vtc+ys6JrxudKUY0d+WwEbLbZZl4bMj4Q6AFoHnrZsmXdUe7povY5OFTYQvf5pfTee++ZgoICdwTftMOPWui+6FpRoPtsoeua97n0X91FvruMco1AD0CDQz4HVxToPgeHVItm1113NVtvvbU7k3vqAnjmmWfcEXx76qmnvBZFU5DrmlEr1xdd8z7/DrpnfVcazTUCPQBdFD6nP6linpZw+5yPW7duXa9PGfLEE094r/6H/1wvTz75pDvyQy3b3XbbzR3lnq51BbrP60X3LLVc8DsKdJ+zRH766Sc7ddHnAJduTt+Pn5999pkZOXKkO4Ivzz//vPcaLrpW1EL3Rde6/g669n3RPeu70miuEegB6KLwvXxeF7fPx0/VtGjcuLE78kOtrgceeMB7SdR8pvdW77HPpznZe++9zbbbbuuOck/Xuu/1F1WrViXQ8Xu6KLTAwmd/4qeffmq+++47d+THcccd53VgVN59910zceJEd4RcmzBhgh2A9k3Xik+61vVE54vuVd2z9KHjdxSCujh8TuH6+OOP7Xx0n1q1auX9Av/qq6/MCy+8wJx0D/Se6r31fZ3oOj/ssMPckR/6O/hcVKRGmFrovhswuUagB6JA9/n4ppt16tSp7sgPPUIfcsgh7siPNWvWmH/9619eW1/5Su/pc889Z99jnxTmvsdb3nzzTa9f+vpS8l22wAcCPRBdHD7n5Mq4cePcK3/atm3rfUs9dR8NHDjQez9vvlHfue9+Z3VVtGvXzh3589prr3m9Pgh0/KFatWp53+giRKA3adLE+6pRUaC//fbb7gjFpXEJvae+6Trfa6+93JEfCvLx48e7Iz90r2Zt2b8Q6IHoG79BgwbuyA+VoJ0xY4Y78kPFipo2beqO/NH84m7dunktHpUvtMxf76XPWVCF9ttvP+8FrVSyQCtdfdKMLp9jXr4Q6AHpYvc9yKI+Up+0uOiggw7y3n0kb731lvnnP/9pVq9e7c5gY2me9tChQ+3sId+0krhZs2ZeVxTL8OHDvXfH7b///u5VthDoAR1wwAHulT+jRo0yq1atcke5py8kDYz6LgksKqt7zz33eG+NxUzvnbpaQqzAVcu8ZcuWXhstWlA0evRod+RPiHvVBwI9oD322MPrYgtRt4vvfSLVT6obNwR1IfXt25fFRptAXSzXXXddkHnncuihh3rvd/7www+9f8FrEV29evXcUbYQ6AFpdogeSX1Sf+k777zjjvzp1KlTsD7GwYMH21YmXS8bTk9pd9xxhxk2bJg745e64P785z9771JUmWXfNdDVpehzEaBPBHpghx9+uNeLXo/WU6ZM8b4wRwO8J5xwgjvyS0Her1+/II/asdB7pUD3Pee80EknnWSfQH3SE8fkyZO9r4hu3bq1e5U9BHpgBx54oNcBRQ0WTZo0ya649ElfShdffLH3CoyFFi5caG666SbvW47FQKuG9QXoc9OTtWmK30UXXeS9VatrWguKfA6IakBXkxeyikAPTDWWfZYVFfUzfvDBB+7Inzp16nh/4libWmddu3b1vjFwls2fP99cdtllNvhC0Geva8D37v6iDTl87z27++67Z25j6LUR6IGpNeP70VQzAXzXuxb9XU455RTvC6YKqWWmrgT134dqfWaJtmRTS/mll17yPq2vkD77k08+2ftgv6hevu/BcXUlhrqefSDQA9MjnS6azTff3J3xQzvS+N6jU62zI444wjRs2NCd8U9B9corr5hrr72WPUjXooHCG264wb43ocJctAAnxFOault872ile1KNrRBrLHwh0BOgpdGaGuWTVlhqdohvuvh79OgRtG60Bkkfe+wx0717d697qWaFWub6DIYMGRJ0JpBmOekz8L2QSB588EHvg6Hly5c3f/rTn9xRNhHoCdhzzz1NpUqV3JE/Cr0QrVhN8zr77LPdURiaxaMvrHPOOSev+9TVZ37++eebhx56yPvMpt/Se69Bft/09KEVw75psZzvTVx8I9AToNKiWm3pm3Yx0oYGvml2Q5cuXczOO+/szoSh1qi6GDTbRjM78o1m/HTu3Nn2mYeeo1+7dm37vvuuvCkqxOW7SqSo+zDUrC1fCPSEaDDRd7+jWjYKvBBFmbQZQIcOHYLv8FI4UHruuefaOjY+91VNCy0aUs34jh072g0rQvaZi7rX9FlXq1bNnfFH166u4aVLl7ozfuhebNOmjTvKLgI9Iep20bQ/n7SoRDe85nD7pt3R9Qhev359dyYcBZqmNGqGxz/+8Y/gXQ8h6e82YMAA+3f1PSd7fTTt9qyzzvI+sC+6dnUN+14gpb9T1rtbhEBPSKlSpczpp5/ujvzRZhG+ZwcUUnGmG2+8MbFZAkuWLLG1Sy644AL7iB66G8InVU3UWMGll15qB0CTmrapAdBbb73V7ogfgmZrhdi96owzzgjSfeQbgZ6go48+2lSoUMEd+XP33XfbsAuhefPmNnTUYk+CWnIaQNNSdFVqjGFqo7rONMtDpRY0+BlqOf9vqUWuRUshBkJFUxV17fqmezDLy/3XRqAnSH2QITaL0OBoiCmMhS688ELvmwQXRRUGr7nmGrv7/NixY93Z7NE+sSeeeKK5+uqrg1VNXB9tEq4ZNaGoIJtm8fimpf4hxgNCINATpLnoau2o+8U33RwhZgqIul40+yLpPRk1oKZCZWqt66lBS8dD1AUvLvWTqwTy5ZdfbhftvPHGG97nYBdFn6U+U9+7ERVSI2TQoEHuyB89daj2eYiVriEQ6AnSyLoCPUS3i+qkP/3008H6lfX3uuKKK4LPevlfFOx6dD/mmGPs/9PIkSODzPzZWJqh8/rrr//3yUKDn2n4/9RneNVVVwXratF4gUpXhGidq26LSlr7nnEWSolfLpjww+T4L93E6ht99dVX3Rl/9t57b9u/XKVKFXfGL02v0+YU+kkL3bhqjWk2jmZqaKpa0nOP9dSgL5n777/fPkVovCOpfvL/5corr7QrQkPMahFtYKHPJcQm4dqoRZMG0tDwyAUCPQVGjBhh2rZtG2QKmmpkn3feee7IPw1saeOD559/PlUhJQr3GjVq2DUB6pbRF53C3vfGHWp1a6Cz8KlJX7LqYkhiCuIf0YIxDdzfe++9dll8KPpiu+SSS9yRP/r8H3/8cXPssce6M9lHoKeAKsjpsS/ERr7qCx0zZozdRi4U7dKuqYTabSattFhGhZkaNWpkf61bt65dJ6D3q7gzdvQUpimHWs2qvnG1wvVe6Nc0z5lXzSGFecjia5988okdfA1RzkGf9bhx44LWIfKNQE8JDQBpsUgIehpQKyjEYKyo5akZGkcddZQtJJV2CnB1w6hEg35UI1sBr+Xu1atXtzU/NDioICicc69uE4Wz5oerYNjaAa4frXTUptcqmuZzE+9cUa0hPVWpaypU/7Ke4PT0OHToUHfGr7vuusuuto0JgZ4SmoGiwAtRk0SDsJrPrKmFIQeDXnvtNXsDqasB6aUyDprm6nv/27XpS181abTaWN10vukLWqUi1OUWE2a5pIRW3h155JFBVqvphtEN67s+xm9pepi2Rgu1yhAbT08fffr0Cb4Nm67Fhx9+2Hz99dfujD+6x1SIS3/X2BDoKaHHd02rCzH4pNaQHqdDb7qsLh5Nx+vfv3+wGRPYcOpqUi0cDRCH6o4r9PLLL9uZPiEGhjVVUfea78HvJBDoKaJ5vk2aNHFHfqm/V8u4Q3d/KMi18vHRRx+NsoWUVfos1A2nzyb0l62uQV2Lmv0Twr777mv2339/dxQXAj1F1CrS6sBQN5QG77SkXAN1oal2hoo8hZoTj/WrXLmyueWWWxKZvqeB4m7dupmCggJ3xi89hfzf//1ftE+IBHrKqO9SfemhqDSpul9Cz4EubKmrL5+WenI0m0WfQRItc11zWoMxatQod8Y/zavfZ5993FF8CPSU0WIOLU8PVVtCrfPbb7/dzv8NTU8k2r7uxRdftHs56u+OMPReqya/NspQhcwkWqy65lTeINTgvO6prl27RlEmd324g1JIxfb1+BtqSuE777xjd4zXAqckaJ63FrCo9YQwCleAahFVEnStaTaNrr0QdC9pQF7XWswI9BTSopZTTz012HJrPfqqGJJa6knQzdagQQNbv1w1Q2Kpq5FG6kPWE6DCXCslQ65DWNudd95pl92H6urTzBaVeNBCsZgR6CnVokWLYNXtRBXu9PirxT+h+9ML6aZTIaibb7458dK7MdIAtAaiteNRyNosa9O1pUJ0mh6pay4ULZLSPRU7VoqmmGqgqK6FCjmFoNaavkS0O46WuCdFS8BVA1w3vfrX82HjZ5/UP6666p06dbKhlmQfslZEa3m/ygSHajio71z1i/QUGLuSv3xbX+deI2W0olJhplZzKKpBrT0ctbgkqcdx/Xe1JPuQQw6xC67+/e9/Z6L+SRppD1B1sWivVfWXJznwrADXl4rCNWTlTdVy1yyepK7nkAj0FNMFqIp/CvRQ83R106mYlFpxWoAResXg2lT4SrNgNAtDTyvaHzTkY3qWaRxCfeT33XefOfPMMxPbuLuQBkF79+5tHnjggaBdeqoYqcHX2PvOC9GHnnKaJ3z22WfbllZIGiB94oknUtEy1qo+FVLSTj677LKLO4v1UVVILRh79tlnzcEHH+zOJkdfwqr5HmLD57XpnunQoUNe1Q6iDz0D1DI9/vjjzZtvvunOhKFBtEceecQW1UoDfbmoS0jBoPK/oZaKZ4W6p8444wy7ElKDymlZDTl58mT7/xViS7m1qYyGGgLauzdfEOgZoZ3rTz755OCbBWs3dK0k3XXXXVPTB6n+Vw2q9erVy8yYMcMOGod8jE8TfSbbbLONady4sZ3yqdkcaVqg9dFHH9my0KHDXIW39ISi7rp8Qh96RmiHIYX5pEmTgoaXVvFpUFL96Wl5dFWI1axZ037BaaBPAa8NJfJtNoyCXFUDL730UtsdpfGWNA38aQcubT/44YcfujNhaPynS5cutrsl39BCzxBVpdPGxhMmTHBnwlCLT9PdBg4caAs5pYm+3PSl8+mnn9oBN+12E/opJjS1PtUFp303NaagYE9TkIsKv5177rnmlVdeCTqjRfSUotrq+Vj4jUDPGG0qfPHFF9t+9dBUIVF919p+LY0U7trqTn3sChJtd6et4WLojtEsFRUxO/TQQ+3Uv5Bbw20sbaBy4YUX2joxoWnOuTZC16rQfESgZ4wCSo/YqpCXBNWY0a5DITeZ3hTqgtGKRP2om0pz60O3FItLT0Z6n5s2bWqnb7Zs2TL177veZ632HT58uDsTlp5gb7vttsSnaSaFQM+gJUuW2Jaa5ouHpnnpKuykDXa1VD/N1DJXvW29X1OnTjXDhg2zi1rSvNO+aLaKVnZqM29VodQTkabgpbVFXkjbx/31r3+1YZ7EegEV3tLnqz1z8xWBnlETJ060BbwUVklQSQIVeEpbn3pR1L+u7c40nU3T6RT4hT+hu2YU0OoP16IX/WiAVyt01bWlfvEsUZ+5ugKT6GYRhbjmuse6E9GGItAzSq1MFbFSsaWkyt5qoFQ73SRVgrW4NN1xzpw5Zvbs2bbvXd0F8+bNs/VGFi5cmPNZM1q9qYViqpOjH5U30CIglUtW6zJUDfxcKhy30PJ6fVEmQU80mnuvbez0Op8R6Bmm1rmm7qmPOAnq49XSag2U1qtXz53NJvWva3zil/vBtuL1o374jz/+2G7EsGDBArN48WL7o1k1+lm9erX9Z0R9tpoup5a1ftRNokFMzbRQv7emFGqxj7pO9KOWuf6ZNM0Z3xSaZ37++efbqa1JjVGoVa5VzWkdrA+JQM84zfFV94dmdCRFi4+0olT9vWlZnQi/tGpX4xLt27e3X3xJ0ROPtrCLfeOKDUUtl4zThawys0nuy6kbWgN4GnRMqvsH4egz1metol9Jhrmu+f79+xPmayHQI6BZJ3rs1W40SVE1yMsvv9z07ds3c9MDseHUZ6553vqsQy/nX5uudc11D7mhehbQ5RIJDfCpKqM2hEha4Vx1Lc9P+1Q7bBgFuQaMNcdcNVKSpmmdWouR1M5LaUULPRKaIaGuF/VjJ03FvLTse9y4ce4Msk7F4fSZarpn0lRFUV0thPnv0UKPzLRp0+xA1axZs9yZZKhlrlkHWmiimiNs/JxNmrqpDZ21+lIzfELP1f8tTfPUAPyee+7pzmBtBHpkdMNppZ6CVDdg0rSyVFMrVdpVNyNdMNmg60gFz66//nrz5JNPpmKnKC0eUsu8TZs2XEfrQfncyOhCV3CWLVvWdnkkfSNqgFRlVFW/XKshd95550QHb1G0ZcuWmaeeesruehR6/8/10YIh7Yt6+umnJ7rJddrRQo+U5glrNkLPnj3tApg0UKBrVsKNN96Yl6VNs0AlmjXwqcF1BXsaKMBvuOEG85e//IV1DkVgUDRSuvA1rUsbDKTlJlBAaEWfVvap7kY+7zSUJvoM9Fk888wztqqjuljSEua6djUlVz+EedFooUdORZOuvfZaM2jQIHcmHfQIra3JtDhFK115jE6GulNUYvjBBx80L7zwQuoqUWoqrvrx82mj5+Ig0POAWl+qof7YY4+5M+mg/n5t4HvEEUewo38CVIxM/dLqJ1ddoLQ9LWljaRWfy2LRsqQQ6HlCu8hcdNFFdo54WvrU16bCVeq71R6ZWtKt2THIPQ2Sq+6P5pNr8VeSqz3XR09rug6yUHM/bQj0PKLKgT169EjFSr/10cIo1QTXj2bEIHdUFlj95I8//rh5++233dn0Oe644+zAOZ//xiPQ84x2lenatau9qdNK0xrVYtfKxI4dO9JKKyZ1p6iP/KGHHrJlgNO8Y5OKvKmbhc980xDoeUh96gp1zTRJw4KRP6LyqJqpoxtduyPl+wYGG+qX+9oOiKuL7fbbb7f95WmmLjY9lal8hcZVsGkI9DylvtNevXqZhx9+OBPVEVXoS7NitJdqs2bNGChbD31Zjx8/3rzyyit21krag1y0yUeHDh3sauKqVau6s9gUBHoe0647d999t+nTp0/Ot1vzQTe+dgPShhonnHCCueCCCxKtA58m33zzjRkyZIitc6K+cn22Wfii1txyDYar3o8WnqF4CPQ8p80K9Eiufku17rJE5Q30mH7KKafYfTnV76rt3fKB+sE1c+n999+34yEa7NS2eVmipyztBaq6QxRvyw0CHTYcNEf9b3/7m+13zRq18jSHvWnTprY7RpX4tItNbCsL9RSlLQdVUVN7eGovWR1n4enqtzQeoi4WzTXX/qrIDQIdluamT5w40dbL0Ma/WaSFStp4WS0/9cVqwZKmwDVq1Mj9iWxSgI8YMcLWV9EsFT1JaXPqrJZN0NOU6gwdeOCBmd8kO20IdKzjgw8+MJ06dTJTpkxJ5QKkTaGuGLXcW7RoYX8t7JpRy1BTJJMuxapgViv7l3vRdpsosDVPXJtKaHBTBbNioAVDWmegmSx77bWXO4tcItDxO9r4Vws7tBFw1vpli6Jpj+qeqVWrlqlevbqpUaOG/VUDrRpg1Y/vGTQKbK3WVPeWZhtpazcNZOpX1SCfM2dOqueKbwqNd6j07RVXXGHXGMAPAh3/0/Lly83AgQPt1Ea9jpXmP6ulrh8NzCnwFeiqKa+gV1GowqAvDHv9MwootTjVxSPqAtETjd4rze0vDO3Cn4ULF9rAVljr9xTYGpBWq1w/aV8PUByavaIyzpqaqPcN/hDo+EPaJENTyhREMYcOck9ffFo/cNNNN5mjjz7anYVPjEjgDx188MF2StxZZ53FbARsMD3paHWvrh3CPBxa6NgghZtTaBFIbP3qyC0NON9yyy3mxBNP9D4egXUR6NgomgWjxSATJkywfcBAIc0Y2m+//ewitQYNGrizCIlAx0ZbvHixGTx4sC0bkMZ62ghPs4RUikE7ULFfbHIIdGwSDZBq2Xm3bt3sfOks1A1B7mlhkAqmaRPnPfbYg41JEkago1g0Xe/+++83AwYMMAUFBcyEyROasqnSxqpX36VLF6YjpgSBjpx477337CYKqgmjyn+IlwY6VRBNO/FnvaxCbAh05Ixa69OnT7fdMCochfgccMABttyyuldolacPgY6c0+yXRx991HbDaB/TLFYDxK80e0WlErRzlLpY2DUqvQh0eKMZMJq7rpow7777LgOnGaMBz/r165tTTz3VtGnTxtbAQboR6PBK9U0U7Ar1/v37202qkX7ly5e3+84qzDUlUYOgSD8CHcFosFS7I2mHHVV0pCsmXbQhiOaQa4XnZZddZouRIVsIdASl2t+zZs2yGzY899xztu73qlWr3O8iCQpy1SnXJtytW7e2qzzZeCKbCHQkQl0xWnGqrdTuu+8+8/LLL0ezoUZWqBtF2/Z17tzZ/lqxYkW6VjKOQEfiFORvvvmmue222+xOSdr8mO4YP1TzXTs2ad9VbTfYvHlzVndGhEBHamgWzDvvvGPGjx9vi3/pR+GO4tNiILXCW7ZsaUsiN27cmG6VCBHoSB0Fu8r1auD0qaeeMoMGDbKbI2PjabNs7RSkgU69VrDTrRIvAh2pp4CfOHGiXaykVrv24lTgM699XWpxa7u3ChUqmCZNmpjTTjvNtGrVii6VPEKgI1NUAEz97PqZNm2aXbCkc/ka7grxypUrm4YNG9q6Kpqtoh31tfl1iRIl3J9CviDQkUmq6rh06VI7t33mzJlmzJgxZtSoUXbv03ygSoeHHXaY3d5NQa6BTtVW0RRE5C8CHdFQyGtHJQ2qvv7667Zeu0JfO/EX7sqfJerr3mqrrWxQq++7Xr16plmzZnZmyu67705XCn6HQEe0vv32W9ti10KmefPmmS+++MIOtOr13LlzzZIlS9yfTAcFd/Xq1W13iZbbqyCWds2vU6eOraPC/pwoCoGOvKG57b9c77a1rp+FCxfawFdFSP3otX5815tRnRQFdO3atdf5VQt71CLXJsuqaKgf+sGxMQh04DcUqipR4Iu+VAAfWFkAAJEg0AEgEgQ6AESCQAeASBDoABAJAh0AIkGgA0AkCHQAiASBDgCRINABIBIEOgBEgkAHgEgQ6AAQCQIdACJBoANAJAh0AIgEgQ4AkSDQASASBDoARIJAB4BIEOgAEAkCHQAiQaADQCQIdACIBIEOAJEg0AEgEgQ6AESCQAeASBDoABAJAh0AIkGgA0AkCHQAiASBDgCRINABIBIEOgBEosSKFSt+dq+BTPj+++/NvHnzzNixY83o0aPNjBkzTEFBgVm5cqX7E/mhdOnSpnLlyqZhw4amVatWpkWLFqZ69eqmTJky7k8g3xDoyIw1a9aYyZMnmyFDhpgXX3zRLFiwwPz8M5evlChRwlSpUsW0bt3atG/f3uy7775ms814AM83BDoyYdWqVWbQoEGmX79+Zv78+QT5eijY1Uq/5pprTLt27UzJkiXd7yAfEOhIPYX5wIEDTffu3W13C4pWtmxZ07dvX9OxY0dCPY/wTIZUUzfL4MGDCfONtHz5ctOtWzczdOhQ+x4iP9BCR6q98cYbpkOHDmbu3LnuDDZGzZo1zSOPPGKaNGniziBmtNCRWmqRawBUM1qwafTeDRs2zPz444/uDGJGoCO1FEYvvfQSA6DFoO6W4cOH84STJwh0pJbmmWtqIopHs4L0XiJ+BDpSa8yYMQzo5YCecPSkg/gR6Eit6dOnu1coLq2mRfwIdKTWokWL3CsU18KFC90rxIxAB4BIEOhIrR133NG9QnGpiBfiR6AjtRo1auReobhUkRHxI9CRWocffjgVA3NABbtUXhfx425BarVs2dJUrVrVHWFT6T1s3ry5O0LMCHSkVrVq1WzLUi1MbBq9d0ceeaQtqYv4EehILe28o80aatSo4c5gY+m9O/PMM9nFKE8Q6Eg17bzTs2dPU65cOXcGG2rrrbc2PXr0MPvss487g9gR6Eg1DYqedtppdrMGQn3DaYOLm266ybRt25aB5TzCJ43U0447qok+YMAAU6tWLQLqD6jPXDXQ+/fvb9+zUqVKud9BPmCDC2SGCnW99dZbdheeESNGsLfoWhTkms2iAVD1maubhS++/EOgI3O0WYPqe6sk7OjRo20Rr4KCgrzbxGGLLbawK0C1AEtz9lu0aGFnBjEAmr8IdACIBM9kABAJAh0AIkGgA0AkCHQAiASBDgCRINABIBIEOgBEgkAHgEgQ6AAQCQIdACJBoANAJAh0AIgEgQ4AkSDQASASBDoARIJAB4BIEOgAEAkCHQAiQaADQCQIdACIBIEOAJEg0AEgEgQ6AESCQAeASBDoABAJAh0AIkGgA0AkCHQAiASBDgCRINABIBIEOgBEgkAHgEgQ6AAQCQIdACJBoANAJAh0AIgEgQ4AkSDQASASBDoARIJAB4BIEOgAEAkCHQAiQaADQCQIdACIBIEOAJEg0AEgEgQ6AESCQAeASBDoABAJAh0AIkGgA0AkCHQAiIIx/w9iB1S8LH1IzwAAAABJRU5ErkJggg==;" vertex="1" parent="1">
          <mxGeometry x="60" y="100" width="44.08" height="50" as="geometry" />
        </mxCell>
      </root>
    </mxGraphModel>
  </diagram>
  <diagram name="페이지-1의 복사본" id="U_aoLEk7Wb8a8ij-Crd2">
    <mxGraphModel dx="2307" dy="1179" grid="1" gridSize="10" guides="1" tooltips="1" connect="1" arrows="1" fold="1" page="1" pageScale="1" pageWidth="1100" pageHeight="850" math="0" shadow="0">
      <root>
        <mxCell id="a3hXZRpXfvRNPUlZ7n1O-0" />
        <mxCell id="a3hXZRpXfvRNPUlZ7n1O-1" parent="a3hXZRpXfvRNPUlZ7n1O-0" />
        <mxCell id="a3hXZRpXfvRNPUlZ7n1O-2" value="" style="shape=image;verticalLabelPosition=bottom;labelBackgroundColor=default;verticalAlign=top;aspect=fixed;imageAspect=0;image=data:image/png,iVBORw0KGgoAAAANSUhEUgAAAXQAAAGmCAYAAABslX93AAAAAXNSR0IArs4c6QAAAARnQU1BAACxjwv8YQUAAAAJcEhZcwAADsMAAA7DAcdvqGQAADD+SURBVHhe7d0J/FdT/sfxkxJRSNGijRKlhRFZkrIk+5KlEGUdmVHxt6TE0EIYDdlFCcXYylAUSkppQmVLCSX9SlkqopS/95nzG8XkV/2+59x7z/f1fDx+j773lqXv997399yzfE6JFStW/GwAAJm3mfsVAJBxBDoARIJAB4BIEOgAEAkCHQAiQaADQCQIdACIBIEOAJEg0AEgEgQ6AESCQAeASBDoABAJAh0AIkGgA0AkCHQAiASBDgCRINABIBIEOgBEgkAHgEgQ6AAQCQIdACJBoANAJAh0AIgEgQ4AkSDQASASBDoARIJAB4BIEOgAEAkCHQAiQaADQCQIdACIBIEOAJEosWLFip/dayBvrV692nz//ffml/vB/rps2TIzf/58M3v2bPPpp5+aBQsWmMWLF9ufpUuX2p81a9bYPytbbbWV2Wyzzcw222xjfypWrGh/qlSpYmrVqmXq1KljdtppJ1OuXDn7Z8uUKWN/LVmypP3ngVwg0JG3vv32WxvYM2fOtD+fffaZmTt3rpk3b55ZuHChWbVqlfuTuVG6dGmz4447murVq5saNWrYH4V93bp1ze67726/AIDiINCRVxTiL7/8shk5cqSZNGmSWb58uf357rvvzM8/h70VSpQoYbbccktTtmxZ26rfY489zDHHHGOOO+44s+2227o/BWw4Ah3RUkArrNVNMmXKFDN06FDz6quvmh9//NH9iXTaYostzCGHHGLatWtnmjRpYlvuCn19AQB/hEBHlD7//HMb3mqNT5482XalqM87S9Qnr26Zpk2bmubNm5uWLVuanXfe2f0u8HsEOqKhFvm7775r7rrrLjN27FjbMlcLPQYaQN1hhx1sy71Tp062e4YWO36LQEemKcQ140SDm/fff7958sknbX94zDRD5sgjjzSXXHKJHUxV/zvhDiHQkVm/XLtmzJgxtm989OjR0bTGN5T61Q8//HBz0kkn2YDfeuut3e8gXxHoyBz1hY8bN8707t3bvPfee3bmSugZKmmiGTENGzY03bt3t33t6ntHfiLQkRkrV660g5133nmneeihh2wLHb/S7JgzzzzTXHbZZXYRk+a9I78Q6MiERYsWmUGDBtkg18pNrJ9mwpx99tmmY8eOdiET8geBjtR74403zKWXXmo+/PBD88MPP7iz+CNqre+2226mV69etp8d+YFAR2p9+eWX5p577jH9+/f/b80UbBxNd+zSpYu58MILaa3nAQIdqaNBT7XKb7nlFrswKNc1VfJNqVKl7KIkBfvBBx9MQbCIEehIFQ18Dhw40Nx666222iFyR5Ufr7zySnPOOeeYzTff3J1FTAh0pMZXX31lBgwYYMNcwY7cU5B37tzZdO3a1Wy//fbuLGJBoCNxmkM+Y8YMc/3115vnn3/enYVPRx99tJ23vueee7LKNCIEOhKnMD/vvPNsHZasFdDKKi0+Uj2Y++67z4Y64kCgIzE//fSTmTBhgl0Mo0JaCE+leR955BFzwAEH0K8eAdYIIxGaufL000/bATrCPDl677UISUXNmE2UfQQ6EjFixAi7RP2LL75wZ5AUbbd3xRVX2M8E2UaXC4JSK1DBoWXptAjTRV0uKq2gLfDofskmWugIRgH+zDPP2ClzhHn66DPR4iN1hWl8A9lDCx3BqOStWuYLFixwZ5BGlStXNoMHD7aleJEtBDq8K9waTnOfVZ8l7VR2tly5cnYDCdUa165AKnS1yy67mOrVq9ut4CpUqGALYBVuKqFdkrT59JIlS2xlSJX5nTNnji0oNnPmTFuzfdmyZXYTjiwsmtLf8YUXXmCru4wh0OHd9OnTzQUXXGCmTZvmzqSPiljVr1/fzsmuV6+eqVu3rqlTp46tK17c/mR1ZaiMgbbJ++ijj8z7779v3wttzvHL/ef+VPo0btzYzlNv1KiRO4O0I9DhlZbzq9KfWntpWzSklmetWrXMqaeeak488URTqVIls91225ktt9zS/Qk/FOJqsRcUFNgxhSeeeMJ89tlnqdt1SYuP9FSlipeUCcgGAh3eqGXap08fc+ONN7ozyVNIlS9f3m7Zdv7555vWrVvb1nmSVBpYVSW1ybVa7pobnqYvv8svv9z06NGDHZAygECHF6tXr7YBddVVV9m+5TTQTj5qcWpD5QMPPND2gaeJvgCnTJlihg8fbqd2pmVnJnU53XzzzfYLkP1K041Ahxdjx4415557bioWDqkFrj58zbCpWbNm6oL8t/QFqC4YlRF+4IEHUrG5R9WqVe0WgAcddJA7gzQi0JFzmsmifvORI0e6M8nQTJW9997bbsOmX7NIA8pXX321mTx5sp0hkyQ92WiQVPVfkE48PyHnNIg2ZswYd5QMzcxQN4FqlGQ1zEV/j2HDhpl+/frZfv8k6TO999573RHSiBY6ckpdLW3atEmsm0Dbq7Vr18707NnTdhPEst2axiQ0K0bb8qkbJqmVnOq+Uh9/s2bN3BmkCYGOnNGCmmOPPdZ2EyRBW6ypyJQqOMY6I0OLkh588EHbYk9qxa3m6ivU2XQ6fehyQU4oaFTYSQtnQtN8ctXzVv+uZmLEPL1OfzcN8GrAdL/99ktkFadWv6o0APV40ocWOnLik08+sVMC9WtICrRWrVqZv//973Zpfj7Re6054lq0FXpRkhZkabvAfHvP044WOopNi2AUqKHDXP3jhx56qN1YOh+DRfPqb7/9dvuFFnqsQHPk77jjDtu3j/Qg0FFsr732mt3GLCQtz1dfubp5qlWr5s7mHw38apC0Q4cO3ksW/Jbe+/Hjx7sjpAGBjmLRbBbN8/7hhx/cGf/UGj3jjDPM9ddfz5zoX+g96N27t2nfvn3QlroWQOm/m/T8ePyKQMcmU7/tqFGjbGncUNRnrm6W6667zhbSwn+ozK/eE3W/hBwonTFjhhk9enTqCovlKwIdm2zp0qV24Y5+DUFBdcQRR5g777yTlvn/oIqIGk/QexQq1AuvAVWPRPIIdGyyWbNm2dWDoVpn+++/vx18zec+86KoT12Lj5o2berO+KXPXi30jz/+2J1Bkgh0bBLdyGoNaheeELRoSJUbNbMDf6x27dp2gZV2HQpB18Bdd92Vunr3+YhAxyZRv7lKvIZQqlQpG1DqO8eGOeyww0znzp2Dlbt99tln7Q5MSBaBjk2iFtmKQNunaUqeSt9Si3vDqYb5xRdfbE4//XR3xi/NdlJRNgZHk8Udgo2mBUSvvvqqO/JL1QavvPLK1NcwTyPNS7/22mvtRs8haNcl1XFHcgh0bBS1wBTmIXbvVz3ziy66yPafY9PovTvvvPOCbLOna0LXBq305BDo2ChaRKLVgSHK4zZp0sSW4o2lBG4S9N6pnLB28PdN14Suje+++86dQWgEOjaKNjCeNGmSO/JHLUqtQlQrHcWjRUfarLtMmTLujD+6NnSNIBkEOjaKNjGeN2+eO/JHZXBVdxu5oVK7qn3jm/rQp06d6o4QGoGOjaLt0HxX2NNcc81qCbmEPR9o027f4xGai65rBMkg0LHBtLzb9+wWTU085phj7O78yC29p6pZ7/uLUquHQy04w7oIdGwwFeJShT2fVI/kqKOOCl4KNh9oXOL444835cuXd2f8UOVNlQNAeAQ6Nthzzz3nfUpagwYNbH8v/DjooINMw4YN3ZE/oVYRY10EOjbI119/7X3zZ3UFaDCU1rk/WqClvnTf3S4aGP3mm2/cEUIh0LFBtPmz735R7VPZunVrdwRf1I9eo0YNd+SHrhVV40RYBDo2yMyZM70H+mmnnRZkRWO+03t8yimnuCM/tABNjQCERaCjSJqmOHv2bK+rQxUyJ5xwgjuCbyeddJLXhUa6VhTolNQNi0BHkXRzzp071+uAaP369U2lSpXcEXzTfHS9577oWtE1E6JEBH5FoKNIKpPre3WoVoWyR2g4KgegSpY+6ZoJVWIZ/0Ggo0hqZfkM9NKlS5t69eoxuyUgdbeorK7ee1/UQqdQV1gEOoqkwdBFixa5o9xTAa66deu6I4Si99xn8TNdMxocRTgEOor0+eefm5UrV7qj3CtbtqypU6eOO0Ioes99BrpWFc+fP98dIQQCHUXSju4+B0TVn7vTTju5I4Si93ybbbZxR37MmTPHvUIIBDqK5HtbMfWfaw9MhKX+c99dXQR6WAQ6irRgwQL3yo/ddtvNvUJovgO9oKDAvUIIBDqK5Hv/UNU/RzJq167tta4LuxeFRaCjSL5vyurVq7tXCM33ex9iM3H8ikBHkVRp0acddtjBvUJovt9739cO1kWgo0jasMCnihUrulcIzfd7z0rRsAh0FMnnHHRhhWhyfBboEt/XDtZFoKNIvred06YLSIbvL1PfT3dYF4GOIvne5b9kyZLuFULz/d77vnawLgIdACJBoANAJAh0AIgEgQ4AkSDQASASBDoARIJAB4BIEOgAEAkCHQAiQaADQCQIdACIBIEOAJEg0AEgEgQ6AESCQAeASBDoABAJAh0AIkGgA0AkCHQAiASBDgCRINABIBIEOgBEgkAHgEgQ6AAQCQIdACJBoANAJAh0AIgEgQ4AkSDQASASBDoARIJAB4BIEOgAEAkCHQAiQaADQCQIdACIBIEOAJEg0AEgEgQ6AESCQAeASBDoABAJAh0AIkGgA0AkCHQAiASBDgCRINABIBIEOgBEgkAHgEgQ6AAQCQIdACJBoANAJAh0AIgEgQ4AkSDQASASBDoARIJAB4BIEOgAEAkCHQAiQaADQCQIdACIBIEOAJEg0AEgEgQ6AESCQAeASBDoABAJAh0AIkGgA0AkCHQAiASBDgCRINABIBIEOgBEgkAHgEiUWLFixc/uNQL7/vvvzbx588zYsWPN6NGjzYwZM0xBQYH9vcqVK5uGDRuaVq1amRYtWpjq1aubMmXK2N8LbauttjI//+zvMvnlGnSvkIRYP9+s3F+5RKAnYM2aNWby5MlmyJAh5sUXXzQLFixY7w1VokQJU6VKFdO6dWvTvn17s++++5rNNgv7YEWgxy22zzdr91cuEeiBrVq1ygwaNMj069fPzJ8/f4NvJF14akVcc801pl27dqZkyZLud/wj0OMW0+db3PurZ8+epm3btkHvr1wi0APSxTZw4EDTvXt3+zi4KcqWLWv69OljzjnnnGAXHYEet1g+38L76+qrr97k/6bur759+5qOHTtmMtQZFA1Ej4GDBw8uVpjL8uXL7QX72GOP2X8ngF/vr+KEuej+6tatmxk6dGgm7y8CPRD16d18883FCvNCuuh69+5tpk6d6s4A+U33l7pZcvE0oPurV69e5q233nJnsoNAD0AhrgEajbjniv5djz/+uPnxxx/dGSA/Fd5fn3/+uTtTfLq/hg0blrn7i0APQBfHSy+9lNN+Sj0ODh8+3MydO9edAfIT99evCPQANA9WU6dyTaP4+ncD+Yz761cEegBa1OBjgEUtErVMgHw2ZswY7i+HQA9g+vTp7lXuafUbkM+4v35FoAewaNEi9yr3Fi5c6F4B+Yn761cEegBa8ODLDz/8YFavXu2O/PC9wML3/z/WL4Zrx+dMlJUrV7pX2UCgB7D55pu7V374nlq1xRZbuFd+MPUyOWoQ+LTlllu6V374/v8vXbq0e5UNBHoAvi8K360I3///LP1PTi4Wuv0R39eO78aA78ZYrhHoAfh+7PR9UftuZS1ZssS9Qmi+33vfJWkJ9HUR6AH4bqX4fuwsX768e+WHz0Et/DHf7/3222/vXvlBl8u6CPQAfF8U3377rXvlxw477OBe+ZHLJdvYOLksR/G/VKxY0b3yY+nSpe6VH7TQ8TvbbLONe+XH4sWL3Ss/fN+Uc+bMca8Qmt57n6VzfTcGfD9hbLfddu5VNhDoAfh+7Pzyyy/dKz+0o4tPM2fOdK8Qmu/3vlKlSu6VH74bM77v3Vwj0APIeqDXrFnTvfLjgw8+yNx83xjoPZ81a5Y78mOXXXZxr/zQte/zCcP3+FGuEegBVKhQwb3yw3eg165d227R5Yv6Qb/44gt3hFA0duF7/MV3oPvucvF97+YagR6A7xa67xKf1apV8zqwu2zZMjN79mx3hFD0nmszB1+0IG2nnXZyR374HlCnywW/43tgyPegYrly5cyOO+7ojnJPofLRRx+5I4Si91xfpr6o/1zXjk++r33fEwJyjUAPoEaNGl67LL7++muv07e0ibB2RPdFfbnvv/++9znF+JVW5+o99zl2oWtG144v6i7y3WXke/wo1wj0AHRh+wx0rZbzOdqv1X76UvJp2rRp5ptvvnFH8E3vtc+ys6JrxudKUY0d+WwEbLbZZl4bMj4Q6AFoHnrZsmXdUe7povY5OFTYQvf5pfTee++ZgoICdwTftMOPWui+6FpRoPtsoeua97n0X91FvruMco1AD0CDQz4HVxToPgeHVItm1113NVtvvbU7k3vqAnjmmWfcEXx76qmnvBZFU5DrmlEr1xdd8z7/DrpnfVcazTUCPQBdFD6nP6linpZw+5yPW7duXa9PGfLEE094r/6H/1wvTz75pDvyQy3b3XbbzR3lnq51BbrP60X3LLVc8DsKdJ+zRH766Sc7ddHnAJduTt+Pn5999pkZOXKkO4Ivzz//vPcaLrpW1EL3Rde6/g669n3RPeu70miuEegB6KLwvXxeF7fPx0/VtGjcuLE78kOtrgceeMB7SdR8pvdW77HPpznZe++9zbbbbuuOck/Xuu/1F1WrViXQ8Xu6KLTAwmd/4qeffmq+++47d+THcccd53VgVN59910zceJEd4RcmzBhgh2A9k3Xik+61vVE54vuVd2z9KHjdxSCujh8TuH6+OOP7Xx0n1q1auX9Av/qq6/MCy+8wJx0D/Se6r31fZ3oOj/ssMPckR/6O/hcVKRGmFrovhswuUagB6JA9/n4ppt16tSp7sgPPUIfcsgh7siPNWvWmH/9619eW1/5Su/pc889Z99jnxTmvsdb3nzzTa9f+vpS8l22wAcCPRBdHD7n5Mq4cePcK3/atm3rfUs9dR8NHDjQez9vvlHfue9+Z3VVtGvXzh3589prr3m9Pgh0/KFatWp53+giRKA3adLE+6pRUaC//fbb7gjFpXEJvae+6Trfa6+93JEfCvLx48e7Iz90r2Zt2b8Q6IHoG79BgwbuyA+VoJ0xY4Y78kPFipo2beqO/NH84m7dunktHpUvtMxf76XPWVCF9ttvP+8FrVSyQCtdfdKMLp9jXr4Q6AHpYvc9yKI+Up+0uOiggw7y3n0kb731lvnnP/9pVq9e7c5gY2me9tChQ+3sId+0krhZs2ZeVxTL8OHDvXfH7b///u5VthDoAR1wwAHulT+jRo0yq1atcke5py8kDYz6LgksKqt7zz33eG+NxUzvnbpaQqzAVcu8ZcuWXhstWlA0evRod+RPiHvVBwI9oD322MPrYgtRt4vvfSLVT6obNwR1IfXt25fFRptAXSzXXXddkHnncuihh3rvd/7www+9f8FrEV29evXcUbYQ6AFpdogeSX1Sf+k777zjjvzp1KlTsD7GwYMH21YmXS8bTk9pd9xxhxk2bJg745e64P785z9771JUmWXfNdDVpehzEaBPBHpghx9+uNeLXo/WU6ZM8b4wRwO8J5xwgjvyS0Her1+/II/asdB7pUD3Pee80EknnWSfQH3SE8fkyZO9r4hu3bq1e5U9BHpgBx54oNcBRQ0WTZo0ya649ElfShdffLH3CoyFFi5caG666SbvW47FQKuG9QXoc9OTtWmK30UXXeS9VatrWguKfA6IakBXkxeyikAPTDWWfZYVFfUzfvDBB+7Inzp16nh/4libWmddu3b1vjFwls2fP99cdtllNvhC0Geva8D37v6iDTl87z27++67Z25j6LUR6IGpNeP70VQzAXzXuxb9XU455RTvC6YKqWWmrgT134dqfWaJtmRTS/mll17yPq2vkD77k08+2ftgv6hevu/BcXUlhrqefSDQA9MjnS6azTff3J3xQzvS+N6jU62zI444wjRs2NCd8U9B9corr5hrr72WPUjXooHCG264wb43ocJctAAnxFOault872ile1KNrRBrLHwh0BOgpdGaGuWTVlhqdohvuvh79OgRtG60Bkkfe+wx0717d697qWaFWub6DIYMGRJ0JpBmOekz8L2QSB588EHvg6Hly5c3f/rTn9xRNhHoCdhzzz1NpUqV3JE/Cr0QrVhN8zr77LPdURiaxaMvrHPOOSev+9TVZ37++eebhx56yPvMpt/Se69Bft/09KEVw75psZzvTVx8I9AToNKiWm3pm3Yx0oYGvml2Q5cuXczOO+/szoSh1qi6GDTbRjM78o1m/HTu3Nn2mYeeo1+7dm37vvuuvCkqxOW7SqSo+zDUrC1fCPSEaDDRd7+jWjYKvBBFmbQZQIcOHYLv8FI4UHruuefaOjY+91VNCy0aUs34jh072g0rQvaZi7rX9FlXq1bNnfFH166u4aVLl7ozfuhebNOmjTvKLgI9Iep20bQ/n7SoRDe85nD7pt3R9Qhev359dyYcBZqmNGqGxz/+8Y/gXQ8h6e82YMAA+3f1PSd7fTTt9qyzzvI+sC+6dnUN+14gpb9T1rtbhEBPSKlSpczpp5/ujvzRZhG+ZwcUUnGmG2+8MbFZAkuWLLG1Sy644AL7iB66G8InVU3UWMGll15qB0CTmrapAdBbb73V7ogfgmZrhdi96owzzgjSfeQbgZ6go48+2lSoUMEd+XP33XfbsAuhefPmNnTUYk+CWnIaQNNSdFVqjGFqo7rONMtDpRY0+BlqOf9vqUWuRUshBkJFUxV17fqmezDLy/3XRqAnSH2QITaL0OBoiCmMhS688ELvmwQXRRUGr7nmGrv7/NixY93Z7NE+sSeeeKK5+uqrg1VNXB9tEq4ZNaGoIJtm8fimpf4hxgNCINATpLnoau2o+8U33RwhZgqIul40+yLpPRk1oKZCZWqt66lBS8dD1AUvLvWTqwTy5ZdfbhftvPHGG97nYBdFn6U+U9+7ERVSI2TQoEHuyB89daj2eYiVriEQ6AnSyLoCPUS3i+qkP/3008H6lfX3uuKKK4LPevlfFOx6dD/mmGPs/9PIkSODzPzZWJqh8/rrr//3yUKDn2n4/9RneNVVVwXratF4gUpXhGidq26LSlr7nnEWSolfLpjww+T4L93E6ht99dVX3Rl/9t57b9u/XKVKFXfGL02v0+YU+kkL3bhqjWk2jmZqaKpa0nOP9dSgL5n777/fPkVovCOpfvL/5corr7QrQkPMahFtYKHPJcQm4dqoRZMG0tDwyAUCPQVGjBhh2rZtG2QKmmpkn3feee7IPw1saeOD559/PlUhJQr3GjVq2DUB6pbRF53C3vfGHWp1a6Cz8KlJX7LqYkhiCuIf0YIxDdzfe++9dll8KPpiu+SSS9yRP/r8H3/8cXPssce6M9lHoKeAKsjpsS/ERr7qCx0zZozdRi4U7dKuqYTabSattFhGhZkaNWpkf61bt65dJ6D3q7gzdvQUpimHWs2qvnG1wvVe6Nc0z5lXzSGFecjia5988okdfA1RzkGf9bhx44LWIfKNQE8JDQBpsUgIehpQKyjEYKyo5akZGkcddZQtJJV2CnB1w6hEg35UI1sBr+Xu1atXtzU/NDioICicc69uE4Wz5oerYNjaAa4frXTUptcqmuZzE+9cUa0hPVWpaypU/7Ke4PT0OHToUHfGr7vuusuuto0JgZ4SmoGiwAtRk0SDsJrPrKmFIQeDXnvtNXsDqasB6aUyDprm6nv/27XpS181abTaWN10vukLWqUi1OUWE2a5pIRW3h155JFBVqvphtEN67s+xm9pepi2Rgu1yhAbT08fffr0Cb4Nm67Fhx9+2Hz99dfujD+6x1SIS3/X2BDoKaHHd02rCzH4pNaQHqdDb7qsLh5Nx+vfv3+wGRPYcOpqUi0cDRCH6o4r9PLLL9uZPiEGhjVVUfea78HvJBDoKaJ5vk2aNHFHfqm/V8u4Q3d/KMi18vHRRx+NsoWUVfos1A2nzyb0l62uQV2Lmv0Twr777mv2339/dxQXAj1F1CrS6sBQN5QG77SkXAN1oal2hoo8hZoTj/WrXLmyueWWWxKZvqeB4m7dupmCggJ3xi89hfzf//1ftE+IBHrKqO9SfemhqDSpul9Cz4EubKmrL5+WenI0m0WfQRItc11zWoMxatQod8Y/zavfZ5993FF8CPSU0WIOLU8PVVtCrfPbb7/dzv8NTU8k2r7uxRdftHs56u+OMPReqya/NspQhcwkWqy65lTeINTgvO6prl27RlEmd324g1JIxfb1+BtqSuE777xjd4zXAqckaJ63FrCo9YQwCleAahFVEnStaTaNrr0QdC9pQF7XWswI9BTSopZTTz012HJrPfqqGJJa6knQzdagQQNbv1w1Q2Kpq5FG6kPWE6DCXCslQ65DWNudd95pl92H6urTzBaVeNBCsZgR6CnVokWLYNXtRBXu9PirxT+h+9ML6aZTIaibb7458dK7MdIAtAaiteNRyNosa9O1pUJ0mh6pay4ULZLSPRU7VoqmmGqgqK6FCjmFoNaavkS0O46WuCdFS8BVA1w3vfrX82HjZ5/UP6666p06dbKhlmQfslZEa3m/ygSHajio71z1i/QUGLuSv3xbX+deI2W0olJhplZzKKpBrT0ctbgkqcdx/Xe1JPuQQw6xC67+/e9/Z6L+SRppD1B1sWivVfWXJznwrADXl4rCNWTlTdVy1yyepK7nkAj0FNMFqIp/CvRQ83R106mYlFpxWoAResXg2lT4SrNgNAtDTyvaHzTkY3qWaRxCfeT33XefOfPMMxPbuLuQBkF79+5tHnjggaBdeqoYqcHX2PvOC9GHnnKaJ3z22WfbllZIGiB94oknUtEy1qo+FVLSTj677LKLO4v1UVVILRh79tlnzcEHH+zOJkdfwqr5HmLD57XpnunQoUNe1Q6iDz0D1DI9/vjjzZtvvunOhKFBtEceecQW1UoDfbmoS0jBoPK/oZaKZ4W6p8444wy7ElKDymlZDTl58mT7/xViS7m1qYyGGgLauzdfEOgZoZ3rTz755OCbBWs3dK0k3XXXXVPTB6n+Vw2q9erVy8yYMcMOGod8jE8TfSbbbLONady4sZ3yqdkcaVqg9dFHH9my0KHDXIW39ISi7rp8Qh96RmiHIYX5pEmTgoaXVvFpUFL96Wl5dFWI1axZ037BaaBPAa8NJfJtNoyCXFUDL730UtsdpfGWNA38aQcubT/44YcfujNhaPynS5cutrsl39BCzxBVpdPGxhMmTHBnwlCLT9PdBg4caAs5pYm+3PSl8+mnn9oBN+12E/opJjS1PtUFp303NaagYE9TkIsKv5177rnmlVdeCTqjRfSUotrq+Vj4jUDPGG0qfPHFF9t+9dBUIVF919p+LY0U7trqTn3sChJtd6et4WLojtEsFRUxO/TQQ+3Uv5Bbw20sbaBy4YUX2joxoWnOuTZC16rQfESgZ4wCSo/YqpCXBNWY0a5DITeZ3hTqgtGKRP2om0pz60O3FItLT0Z6n5s2bWqnb7Zs2TL177veZ632HT58uDsTlp5gb7vttsSnaSaFQM+gJUuW2Jaa5ouHpnnpKuykDXa1VD/N1DJXvW29X1OnTjXDhg2zi1rSvNO+aLaKVnZqM29VodQTkabgpbVFXkjbx/31r3+1YZ7EegEV3tLnqz1z8xWBnlETJ060BbwUVklQSQIVeEpbn3pR1L+u7c40nU3T6RT4hT+hu2YU0OoP16IX/WiAVyt01bWlfvEsUZ+5ugKT6GYRhbjmuse6E9GGItAzSq1MFbFSsaWkyt5qoFQ73SRVgrW4NN1xzpw5Zvbs2bbvXd0F8+bNs/VGFi5cmPNZM1q9qYViqpOjH5U30CIglUtW6zJUDfxcKhy30PJ6fVEmQU80mnuvbez0Op8R6Bmm1rmm7qmPOAnq49XSag2U1qtXz53NJvWva3zil/vBtuL1o374jz/+2G7EsGDBArN48WL7o1k1+lm9erX9Z0R9tpoup5a1ftRNokFMzbRQv7emFGqxj7pO9KOWuf6ZNM0Z3xSaZ37++efbqa1JjVGoVa5VzWkdrA+JQM84zfFV94dmdCRFi4+0olT9vWlZnQi/tGpX4xLt27e3X3xJ0ROPtrCLfeOKDUUtl4zThawys0nuy6kbWgN4GnRMqvsH4egz1metol9Jhrmu+f79+xPmayHQI6BZJ3rs1W40SVE1yMsvv9z07ds3c9MDseHUZ6553vqsQy/nX5uudc11D7mhehbQ5RIJDfCpKqM2hEha4Vx1Lc9P+1Q7bBgFuQaMNcdcNVKSpmmdWouR1M5LaUULPRKaIaGuF/VjJ03FvLTse9y4ce4Msk7F4fSZarpn0lRFUV0thPnv0UKPzLRp0+xA1axZs9yZZKhlrlkHWmiimiNs/JxNmrqpDZ21+lIzfELP1f8tTfPUAPyee+7pzmBtBHpkdMNppZ6CVDdg0rSyVFMrVdpVNyNdMNmg60gFz66//nrz5JNPpmKnKC0eUsu8TZs2XEfrQfncyOhCV3CWLVvWdnkkfSNqgFRlVFW/XKshd95550QHb1G0ZcuWmaeeesruehR6/8/10YIh7Yt6+umnJ7rJddrRQo+U5glrNkLPnj3tApg0UKBrVsKNN96Yl6VNs0AlmjXwqcF1BXsaKMBvuOEG85e//IV1DkVgUDRSuvA1rUsbDKTlJlBAaEWfVvap7kY+7zSUJvoM9Fk888wztqqjuljSEua6djUlVz+EedFooUdORZOuvfZaM2jQIHcmHfQIra3JtDhFK115jE6GulNUYvjBBx80L7zwQuoqUWoqrvrx82mj5+Ig0POAWl+qof7YY4+5M+mg/n5t4HvEEUewo38CVIxM/dLqJ1ddoLQ9LWljaRWfy2LRsqQQ6HlCu8hcdNFFdo54WvrU16bCVeq71R6ZWtKt2THIPQ2Sq+6P5pNr8VeSqz3XR09rug6yUHM/bQj0PKLKgT169EjFSr/10cIo1QTXj2bEIHdUFlj95I8//rh5++233dn0Oe644+zAOZ//xiPQ84x2lenatau9qdNK0xrVYtfKxI4dO9JKKyZ1p6iP/KGHHrJlgNO8Y5OKvKmbhc980xDoeUh96gp1zTRJw4KRP6LyqJqpoxtduyPl+wYGG+qX+9oOiKuL7fbbb7f95WmmLjY9lal8hcZVsGkI9DylvtNevXqZhx9+OBPVEVXoS7NitJdqs2bNGChbD31Zjx8/3rzyyit21krag1y0yUeHDh3sauKqVau6s9gUBHoe0647d999t+nTp0/Ot1vzQTe+dgPShhonnHCCueCCCxKtA58m33zzjRkyZIitc6K+cn22Wfii1txyDYar3o8WnqF4CPQ8p80K9Eiufku17rJE5Q30mH7KKafYfTnV76rt3fKB+sE1c+n999+34yEa7NS2eVmipyztBaq6QxRvyw0CHTYcNEf9b3/7m+13zRq18jSHvWnTprY7RpX4tItNbCsL9RSlLQdVUVN7eGovWR1n4enqtzQeoi4WzTXX/qrIDQIdluamT5w40dbL0Ma/WaSFStp4WS0/9cVqwZKmwDVq1Mj9iWxSgI8YMcLWV9EsFT1JaXPqrJZN0NOU6gwdeOCBmd8kO20IdKzjgw8+MJ06dTJTpkxJ5QKkTaGuGLXcW7RoYX8t7JpRy1BTJJMuxapgViv7l3vRdpsosDVPXJtKaHBTBbNioAVDWmegmSx77bWXO4tcItDxO9r4Vws7tBFw1vpli6Jpj+qeqVWrlqlevbqpUaOG/VUDrRpg1Y/vGTQKbK3WVPeWZhtpazcNZOpX1SCfM2dOqueKbwqNd6j07RVXXGHXGMAPAh3/0/Lly83AgQPt1Ea9jpXmP6ulrh8NzCnwFeiqKa+gV1GowqAvDHv9MwootTjVxSPqAtETjd4rze0vDO3Cn4ULF9rAVljr9xTYGpBWq1w/aV8PUByavaIyzpqaqPcN/hDo+EPaJENTyhREMYcOck9ffFo/cNNNN5mjjz7anYVPjEjgDx188MF2StxZZ53FbARsMD3paHWvrh3CPBxa6NgghZtTaBFIbP3qyC0NON9yyy3mxBNP9D4egXUR6NgomgWjxSATJkywfcBAIc0Y2m+//ewitQYNGrizCIlAx0ZbvHixGTx4sC0bkMZ62ghPs4RUikE7ULFfbHIIdGwSDZBq2Xm3bt3sfOks1A1B7mlhkAqmaRPnPfbYg41JEkago1g0Xe/+++83AwYMMAUFBcyEyROasqnSxqpX36VLF6YjpgSBjpx477337CYKqgmjyn+IlwY6VRBNO/FnvaxCbAh05Ixa69OnT7fdMCochfgccMABttyyuldolacPgY6c0+yXRx991HbDaB/TLFYDxK80e0WlErRzlLpY2DUqvQh0eKMZMJq7rpow7777LgOnGaMBz/r165tTTz3VtGnTxtbAQboR6PBK9U0U7Ar1/v37202qkX7ly5e3+84qzDUlUYOgSD8CHcFosFS7I2mHHVV0pCsmXbQhiOaQa4XnZZddZouRIVsIdASl2t+zZs2yGzY899xztu73qlWr3O8iCQpy1SnXJtytW7e2qzzZeCKbCHQkQl0xWnGqrdTuu+8+8/LLL0ezoUZWqBtF2/Z17tzZ/lqxYkW6VjKOQEfiFORvvvmmue222+xOSdr8mO4YP1TzXTs2ad9VbTfYvHlzVndGhEBHamgWzDvvvGPGjx9vi3/pR+GO4tNiILXCW7ZsaUsiN27cmG6VCBHoSB0Fu8r1auD0qaeeMoMGDbKbI2PjabNs7RSkgU69VrDTrRIvAh2pp4CfOHGiXaykVrv24lTgM699XWpxa7u3ChUqmCZNmpjTTjvNtGrVii6VPEKgI1NUAEz97PqZNm2aXbCkc/ka7grxypUrm4YNG9q6Kpqtoh31tfl1iRIl3J9CviDQkUmq6rh06VI7t33mzJlmzJgxZtSoUXbv03ygSoeHHXaY3d5NQa6BTtVW0RRE5C8CHdFQyGtHJQ2qvv7667Zeu0JfO/EX7sqfJerr3mqrrWxQq++7Xr16plmzZnZmyu67705XCn6HQEe0vv32W9ti10KmefPmmS+++MIOtOr13LlzzZIlS9yfTAcFd/Xq1W13iZbbqyCWds2vU6eOraPC/pwoCoGOvKG57b9c77a1rp+FCxfawFdFSP3otX5815tRnRQFdO3atdf5VQt71CLXJsuqaKgf+sGxMQh04DcUqipR4Iu+VAAfWFkAAJEg0AEgEgQ6AESCQAeASBDoABAJAh0AIkGgA0AkCHQAiASBDgCRINABIBIEOgBEgkAHgEgQ6AAQCQIdACJBoANAJAh0AIgEgQ4AkSDQASASBDoARIJAB4BIEOgAEAkCHQAiQaADQCQIdACIBIEOAJEg0AEgEgQ6AESCQAeASBDoABAJAh0AIkGgA0AkCHQAiASBDgCRINABIBIEOgBEosSKFSt+dq+BTPj+++/NvHnzzNixY83o0aPNjBkzTEFBgVm5cqX7E/mhdOnSpnLlyqZhw4amVatWpkWLFqZ69eqmTJky7k8g3xDoyIw1a9aYyZMnmyFDhpgXX3zRLFiwwPz8M5evlChRwlSpUsW0bt3atG/f3uy7775ms814AM83BDoyYdWqVWbQoEGmX79+Zv78+QT5eijY1Uq/5pprTLt27UzJkiXd7yAfEOhIPYX5wIEDTffu3W13C4pWtmxZ07dvX9OxY0dCPY/wTIZUUzfL4MGDCfONtHz5ctOtWzczdOhQ+x4iP9BCR6q98cYbpkOHDmbu3LnuDDZGzZo1zSOPPGKaNGniziBmtNCRWmqRawBUM1qwafTeDRs2zPz444/uDGJGoCO1FEYvvfQSA6DFoO6W4cOH84STJwh0pJbmmWtqIopHs4L0XiJ+BDpSa8yYMQzo5YCecPSkg/gR6Eit6dOnu1coLq2mRfwIdKTWokWL3CsU18KFC90rxIxAB4BIEOhIrR133NG9QnGpiBfiR6AjtRo1auReobhUkRHxI9CRWocffjgVA3NABbtUXhfx425BarVs2dJUrVrVHWFT6T1s3ry5O0LMCHSkVrVq1WzLUi1MbBq9d0ceeaQtqYv4EehILe28o80aatSo4c5gY+m9O/PMM9nFKE8Q6Eg17bzTs2dPU65cOXcGG2rrrbc2PXr0MPvss487g9gR6Eg1DYqedtppdrMGQn3DaYOLm266ybRt25aB5TzCJ43U0447qok+YMAAU6tWLQLqD6jPXDXQ+/fvb9+zUqVKud9BPmCDC2SGCnW99dZbdheeESNGsLfoWhTkms2iAVD1maubhS++/EOgI3O0WYPqe6sk7OjRo20Rr4KCgrzbxGGLLbawK0C1AEtz9lu0aGFnBjEAmr8IdACIBM9kABAJAh0AIkGgA0AkCHQAiASBDgCRINABIBIEOgBEgkAHgEgQ6AAQCQIdACJBoANAJAh0AIgEgQ4AkSDQASASBDoARIJAB4BIEOgAEAkCHQAiQaADQCQIdACIBIEOAJEg0AEgEgQ6AESCQAeASBDoABAJAh0AIkGgA0AkCHQAiASBDgCRINABIBIEOgBEgkAHgEgQ6AAQCQIdACJBoANAJAh0AIgEgQ4AkSDQASASBDoARIJAB4BIEOgAEAkCHQAiQaADQCQIdACIBIEOAJEg0AEgEgQ6AESCQAeASBDoABAJAh0AIkGgA0AkCHQAiIIx/w9iB1S8LH1IzwAAAABJRU5ErkJggg==;" parent="a3hXZRpXfvRNPUlZ7n1O-1" vertex="1">
          <mxGeometry x="60" y="100" width="44.08" height="50" as="geometry" />
        </mxCell>
        <mxCell id="3auHUcRRI6ZUDPHZ_v-E-0" value="" style="shape=image;verticalLabelPosition=bottom;labelBackgroundColor=default;verticalAlign=top;aspect=fixed;imageAspect=0;image=data:image/png,iVBORw0KGgoAAAANSUhEUgAAAXgAAAEbCAYAAADQ/Z9SAAAAAXNSR0IArs4c6QAAAARnQU1BAACxjwv8YQUAAAAJcEhZcwAADsMAAA7DAcdvqGQAAAi7SURBVHhe7dzNi1Z1H8fx7zSZM5iRMRKVUCARPSxqE7SIHqGF9kBJtWpZK9Ny019QbQoX0sZV0KKIHhQMilpERLRxlUTUgJBEkVNkMeOkw9z3OfxuS8tyuM9VXh9fr42/63sWs/g57zmcc64zsbCwsFwAxDmv/QtAGIEHCCXwAKEEHiCUwAOEEniAUAIPEErgAUIJPEAogQcIJfAAoQQeIJTAA4T6R94meeTIkZqbm6ujR4+2CcC5ZWpqqmZmZmrt2rVtMnojC/zy8nLt37+/du/eXZ988kktLi7W0tJSOwpwbpmcnKzVq1fXLbfcUo8//njddNNNNTEx0Y6OxkgC/+OPP9bOnTtr165dNT8/36YAdNasWVNbt26tJ598statW9emwxs88IcOHapnnnmm3njjjTYB4M9s2bKlnnvuudqwYUObDGvQm6z//WPRn7Xv2bOnTQA4nbfffrteeumlkd2fHDTws7Oz9eqrr9bx48fbBIDT6Vr5yiuv1Jdfftkmwxo08N1lme+++659AuDvfP/99/2ZfPdgytAGDfw777zTVgCcqX379rXVsAYN/MGDB9sKgDM1qnYOGvjuC00ArMxPP/3UVsMaNPAAnD0EHiCUwAOEEniAUAIPEErgAUIJPECoQd8mOT093VYr171Nbe/evXXttde2CcB4+Pzzz+v++++vr7/+uk1Wrnu1+tDvh3cGDxBK4AFCCTxAKIEHCCXwAKEEHiCUwAOEEniAUAIPEErgAUIJPEAogQcIJfAAoQQeIJTAA4QSeIBQAg8QSuABQgk8QCiBBwgl8AChBB4glMADhBJ4gFACDxBK4AFCCTxAKIEHCCXwAKEEHiCUwAOEEniAUAIPEErgAUIJPEAogQcIJfAAoQQeIJTAA4QSeIBQAg8QSuABQgk8QCiBBwgl8AChBB4glMADhBJ4gFACDxBK4AFCCTxAKIEHCCXwAKEEHiCUwAOEEniAUAIPEErgAUIJPEAogQcIJfAAoQQeIJTAA4QSeIBQAg8QSuABQgk8QCiBBwgl8AChBB4glMADhBJ4gFACDxBK4AFCCTxAKIEHCCXwAKEEHiCUwAOEEniAUAIPEErgAUIJPEAogQcIJfAAoQQeIJTAA4QSeIBQAg8QSuABQgk8QCiBBwgl8AChBB4glMADhBJ4gFACDxBK4AFCCTxAKIEHCCXwAKEEHiCUwAOEEniAUAIPEErgAUIJPEAogQcIJfAAoQQeIJTAA4QSeIBQAg8QSuABQgk8QCiBBwgl8AChBB4glMADhBJ4gFACDxBK4AFCCTxAKIEHCCXwAKEEHiCUwAOEEniAUAIPEErgAUIJPEAogQcIJfAAoQQeIJTAA4QSeIBQAg8QSuABQgk8QCiBBwgl8AChBB4glMADhBJ4gFACDxBK4AFCCTxAKIEHCCXwAKEEHiCUwAOEEniAUAIPEErgAUIJPEAogQcIJfAAoQQeIJTAA4QSeIBQAg8QSuABQgk8QCiBBwgl8AChBB4glMADhBJ4gFACDxBK4AFCCTxAKIEHCCXwAKEEHiDUxMLCwnJb/9+mp6fbauUuvfTS2rVrV23cuLFNAMbD7Oxsbd26tb799ts2Wbn5+fmamJhon4Zx1gR+cnKyZmZmatWqVW0CMB6OHTtWhw8frqWlpTZZuejAA5zLRhF41+ABQgk8QCiBBwgl8AChBB4g1KCBH/oOMMC5YFTtHDTwF110UVsBcKZG1c5BA3/llVe2FQBn6qqrrmqrYQ0a+E2bNrUVAGdq8+bNbTWsQQP/wAMP1GWXXdY+AfB3rrjiirr33ntHch1+0MBfc8019cgjj9T555/fJgCcTtfKRx99tG/nKAwa+NWrV9eOHTvqzjvvFHmAv9A18o477qht27bV1NRUmw5r0JeN/c/c3Fy98MIL9dprr9U333zTpgB0Lr/88v7Mffv27bV+/fo2Hd5IAt9ZXFysL774ovbs2VP79u2rgwcP1pEjR2p5eSQ/DuCs1V1f7x6F7J6W6W6o3nffff1lme6qxyiNLPDwTzp06FB/k//AgQNtsjLXXXddfzKyYcOGNoHxN+g1eADOHgIPEErgAUIJPEAogQcIJfAAoQQeIJTAA4QSeIBQAg8QSuABQgk8QCiBBwgl8AChBB4glMADhBJ4gFACDxBK4AFCCTxAKIEHCCXwAKEEHiDUxMLCwnJbwwnz8/M1Oztbb775Zr377rv11Vdf1c8//9yO8m9Yu3ZtXX311XXPPffUgw8+WBs3bqzp6el2FP5I4PmDw4cP186dO+vll1/u15x9ZmZm6rHHHqvt27fX+vXr2xROJvCcZHFxsR5++OH68MMP+zVnrwsuuKBuv/32ev311/s1nMo1eE749ddf6+mnn6733ntP3MdAt1/dXu3YsaNfw6kEnhM++uij2rt3b/vEuHjrrbfq448/bp/gNwJP79ixY/XBBx/U3NxcmzAufvjhh3r//ff7PYTfE3h63RMyBw4cqOVlt2TGTbdnn332maec+AOBp9ddc3f2Pr66p51ch+dUAk9vYmKirRhH9o8/I/D0usfsumerGU/d3nlUklMJPL3uW5LXX399nXee/xLjptuzG264od9D+D2/zfRWrVpVd911V11yySVtwrjo9uzuu+/u9xB+T+A54bbbbqtNmzY5ix8j3V5t3ry5br311jaB3/hN5oTJycl6/vnna8uWLc4Gx0C3Rw899FA9++yz/d7BqQSek1x88cX14osv1rZt27yp8CzW7c1TTz3VvxRu3bp1bQon87IxTmv//v21e/fu+vTTT/vXBy8tLbUj/Bu6s/Q1a9bUzTffXE888UTdeOON7Qj8OYHnL3Xfkvzll1/6L9IcPXq0Tfk3TE1N9Y9DXnjhhZ5754wIPEAo1+ABQgk8QCiBBwgl8AChBB4glMADhBJ4gFACDxBK4AFCCTxAKIEHCCXwAKEEHiCUwAOEEniAUAIPEErgAUIJPECkqv8AJqWt2L0kFeoAAAAASUVORK5CYII=;" vertex="1" parent="a3hXZRpXfvRNPUlZ7n1O-1">
          <mxGeometry x="180" y="50" width="106.29" height="80" as="geometry" />
        </mxCell>
      </root>
    </mxGraphModel>
  </diagram>
</mxfile>
